Coordinates
version=1
nRows=6
nColumns=36
inDegrees=yes

Units are S.I. units (second, meters, Newtons, ...)
If the header above contains a line with 'inDegrees', this indicates whether rotational values are in degrees (yes) or radians (no).

endheader
time	pelvis_tilt	pelvis_list	pelvis_rotation	pelvis_tx	pelvis_ty	pelvis_tz	hip_flexion_r	hip_adduction_r	hip_rotation_r	knee_angle_r	knee_angle_r_beta	ankle_angle_r	subtalar_angle_r	mtp_angle_r	hip_flexion_l	hip_adduction_l	hip_rotation_l	knee_angle_l	knee_angle_l_beta	ankle_angle_l	subtalar_angle_l	mtp_angle_l	lumbar_extension	lumbar_bending	lumbar_rotation	arm_flex_r	arm_add_r	arm_rot_r	elbow_flex_r	pro_sup_r	arm_flex_l	arm_add_l	arm_rot_l	elbow_flex_l	pro_sup_l
      5.67916670	      2.10658028	      0.82382239	    -37.60490633	      0.43515969	      0.96395103	      0.06544198	      6.39319994	      4.71023110	    -12.15844179	     10.37832793	      0.18113599	     -1.17563377	    -29.13068876	     -7.49999987	     15.66728743	     -8.54596289	    -12.52476465	     57.51523409	      1.00383020	    -18.65587104	    -34.60768781	     -7.49999987	    -14.28180496	      0.10598935	     -3.04147677	      3.00782363	     -9.90875120	    -10.85565974	     33.34589291	     76.90890465	      2.47025157	    -12.15457363	     12.93376303	     29.28196365	     80.57299821
      5.68333330	      2.08489561	      0.87974787	    -39.46442692	      0.42991048	      0.96159575	      0.06374064	      7.23710551	      4.75417427	    -10.74267902	     11.26083722	      0.19653869	     -1.21472390	    -29.41250676	     -7.49999987	     16.38627235	     -8.82877082	    -13.56403139	     58.84086370	      1.02696681	    -18.28554090	    -34.61945443	     -7.49999987	    -14.56893899	     -0.02699811	     -2.22672845	      4.32838225	    -10.37993336	     -9.05667789	     33.58630688	     74.61210951	      2.73900616	    -12.06725623	     13.02791124	     29.53213427	     77.68784113
      5.68750000	      1.90536311	      1.08778523	    -41.45928622	      0.42491805	      0.95952890	      0.06435616	      8.44478531	      4.83349038	     -9.35563327	     12.25770344	      0.21393728	     -1.05503478	    -29.53365231	     -7.49999987	     17.38844281	     -9.20989851	    -14.71420632	     60.09243336	      1.04881082	    -17.98795060	    -34.62697370	     -7.49999987	    -14.67227226	     -0.22842390	     -1.15441450	      5.79254904	    -10.67218400	     -7.92488086	     33.41038288	     72.57920841	      3.22486103	    -11.81011356	     12.63446119	     29.27741987	     75.15210102
      5.69166670	      1.79078103	      1.24538167	    -43.44778579	      0.42329339	      0.96088214	      0.06703833	      9.44601959	      4.99999626	     -7.98102834	     13.07534563	      0.22820783	     -1.23707572	    -29.73247623	     -7.49999987	     18.04307231	     -9.62506504	    -15.86851869	     60.96709275	      1.06407650	    -18.15087385	    -34.63102218	     -7.49999987	    -14.86130259	     -0.43806301	     -0.34389664	      7.17758799	    -10.99445858	     -6.53014151	     33.45264039	     76.19091078	      3.13700576	    -11.69249255	     10.90939576	     29.83092957	     80.19686441
      5.69583330	      1.82255074	      1.34370476	    -45.26193674	      0.42484506	      0.95794078	      0.07102594	      9.92388288	      5.11973795	     -6.63455480	     13.62281223	      0.23776293	     -1.07148501	    -29.50542854	     -7.49999987	     18.23402476	     -9.96222200	    -16.85401810	     61.94390297	      1.08112506	    -18.07446623	    -34.63029693	     -7.49999987	    -14.92148560	     -0.60519302	      0.49066818	      8.02486292	    -11.07260390	     -6.37456589	     33.83026423	     76.25712521	      3.26108773	    -11.61638611	     10.80946112	     29.81525299	     80.22959766
      5.70000000	      1.71509524	      1.69272702	    -46.77124598	      0.42423943	      0.95373206	      0.07322893	     10.76469232	      5.20866830	     -5.34144960	     14.43575798	      0.25195151	     -0.97073846	    -29.58311376	     -7.49999987	     18.79902132	    -10.17951154	    -17.74685703	     62.84627580	      1.09687444	    -17.74215211	    -34.61608054	     -7.49999987	    -14.60784824	     -0.96221408	      1.59940995	      8.43988068	    -11.32383441	     -5.78488847	     34.24019680	     76.44249255	      3.66889436	    -11.50891599	     10.49910108	     29.69391597	     80.28742386
